<?xml version="1.0" encoding="utf-8"?>
<!-- Generator: Adobe Illustrator 24.0.2, SVG Export Plug-In . SVG Version: 6.00 Build 0)  -->
<svg version="1.1" id="Layer_1" xmlns="http://www.w3.org/2000/svg" xmlns:xlink="http://www.w3.org/1999/xlink" x="0px" y="0px"
	 viewBox="0 0 600 600" style="enable-background:new 0 0 600 600;" xml:space="preserve">
<style type="text/css">
	.st0{fill:#363636;}
	.st1{fill:#FFFFFF;}
</style>
<g>
	<circle class="st0" cx="300.4" cy="300" r="300"/>
</g>
<g>
	<path class="st1" d="M163.52,180.02l111.44,126.44c6.33,7.19,15.46,11.31,25.05,11.31c9.58,0,18.71-4.12,25.05-11.31l109.5-124.25
		c0.91-1.03,1.97-1.82,3.1-2.45c-4.64-2.03-9.76-3.18-15.15-3.18H177.49c-5.16,0-10.07,1.04-14.54,2.9
		C163.14,179.67,163.34,179.82,163.52,180.02z"/>
	<path class="st1" d="M454.53,194.32c-0.49,1.28-1.18,2.52-2.14,3.61L342.88,322.18c-10.85,12.3-26.48,19.36-42.88,19.36
		c-16.4,0-32.03-7.06-42.88-19.36L145.68,195.74c-0.23-0.25-0.38-0.54-0.58-0.81c-3.44,5.7-5.46,12.36-5.46,19.5v171.14
		c0,20.9,16.95,37.85,37.85,37.85h245.02c20.9,0,37.85-16.94,37.85-37.85V214.43C460.36,207.03,458.2,200.15,454.53,194.32z"/>
</g>
</svg>
