<?xml version="1.0" encoding="utf-8"?>
<!-- Generator: Adobe Illustrator 24.0.2, SVG Export Plug-In . SVG Version: 6.00 Build 0)  -->
<svg version="1.1" id="Layer_1" xmlns="http://www.w3.org/2000/svg" xmlns:xlink="http://www.w3.org/1999/xlink" x="0px" y="0px"
	 viewBox="0 0 600 600" style="enable-background:new 0 0 600 600;" xml:space="preserve">
<style type="text/css">
	.st0{fill:#010101;}
	.st1{fill:#FFFFFF;}
	.st2{fill:#363636;}
</style>
<g>
	<circle class="st0" cx="300.4" cy="300" r="300"/>
	<path id="XMLID_42_" class="st1" d="M262.99,448.4h59.76V298.74h41.7l4.45-50.11h-46.14c0,0,0-18.71,0-28.54
		c0-11.81,2.37-16.48,13.8-16.48c9.19,0,32.34,0,32.34,0V151.6c0,0-34.1,0-41.38,0c-44.47,0-64.52,19.59-64.52,57.08
		c0,32.66,0,39.95,0,39.95h-31.09v50.74h31.09V448.4z"/>
</g>
<g>
	<circle class="st0" cx="300.4" cy="300" r="300"/>
	<g id="XMLID_47_">
		<path id="XMLID_52_" class="st1" d="M300.4,184.14c37.74,0,42.21,0.14,57.11,0.82c13.78,0.63,21.26,2.93,26.24,4.87
			c6.6,2.56,11.31,5.62,16.25,10.57c4.95,4.95,8.01,9.65,10.57,16.25c1.94,4.98,4.24,12.47,4.87,26.25
			c0.68,14.9,0.82,19.37,0.82,57.11c0,37.74-0.15,42.21-0.82,57.11c-0.63,13.78-2.93,21.26-4.87,26.24
			c-2.56,6.6-5.63,11.31-10.57,16.25c-4.94,4.94-9.65,8.01-16.25,10.57c-4.98,1.94-12.47,4.24-26.24,4.87
			c-14.9,0.68-19.37,0.82-57.11,0.82s-42.21-0.14-57.11-0.82c-13.78-0.63-21.26-2.93-26.24-4.87c-6.6-2.56-11.3-5.63-16.25-10.57
			c-4.95-4.95-8.01-9.65-10.57-16.25c-1.93-4.98-4.24-12.46-4.87-26.24c-0.68-14.9-0.82-19.37-0.82-57.11
			c0-37.74,0.14-42.21,0.82-57.11c0.63-13.78,2.93-21.26,4.87-26.25c2.56-6.59,5.63-11.3,10.57-16.25
			c4.95-4.95,9.65-8.01,16.25-10.57c4.98-1.94,12.46-4.24,26.24-4.87C258.2,184.28,262.67,184.14,300.4,184.14 M300.4,158.67
			c-38.38,0-43.2,0.16-58.27,0.85c-15.04,0.69-25.32,3.08-34.31,6.57c-9.3,3.61-17.18,8.44-25.03,16.3
			c-7.86,7.86-12.69,15.74-16.3,25.03c-3.49,8.99-5.88,19.26-6.57,34.3c-0.69,15.07-0.85,19.89-0.85,58.27s0.16,43.2,0.85,58.27
			c0.69,15.04,3.08,25.31,6.57,34.31c3.61,9.29,8.44,17.18,16.3,25.03c7.86,7.86,15.74,12.69,25.03,16.3
			c8.99,3.49,19.26,5.88,34.31,6.57c15.07,0.69,19.89,0.85,58.27,0.85s43.2-0.16,58.27-0.85c15.04-0.69,25.32-3.08,34.3-6.57
			c9.3-3.61,17.18-8.44,25.03-16.3c7.86-7.86,12.69-15.74,16.3-25.03c3.49-8.99,5.88-19.26,6.57-34.31
			c0.69-15.08,0.85-19.89,0.85-58.27s-0.16-43.2-0.85-58.27c-0.69-15.04-3.08-25.31-6.57-34.3c-3.61-9.29-8.45-17.18-16.3-25.03
			c-7.86-7.86-15.74-12.69-25.03-16.3c-8.99-3.49-19.26-5.88-34.3-6.57C343.6,158.83,338.79,158.67,300.4,158.67"/>
		<path id="XMLID_49_" class="st1" d="M300.4,227.43c-40.08,0-72.58,32.49-72.58,72.57s32.5,72.58,72.58,72.58
			c40.08,0,72.57-32.49,72.57-72.58S340.49,227.43,300.4,227.43 M300.4,347.11c-26.02,0-47.11-21.09-47.11-47.11
			c0-26.02,21.09-47.11,47.11-47.11c26.02,0,47.11,21.09,47.11,47.11C347.51,326.02,326.42,347.11,300.4,347.11"/>
		<path id="XMLID_48_" class="st1" d="M392.81,224.56c0,9.37-7.59,16.96-16.96,16.96c-9.37,0-16.96-7.6-16.96-16.96
			c0-9.37,7.59-16.96,16.96-16.96C385.21,207.6,392.81,215.19,392.81,224.56"/>
	</g>
</g>
<g>
	<circle class="st0" cx="300.4" cy="300" r="300"/>
	<path class="st1" d="M382.68,200.42H218.13c-32.28,0-58.46,26.17-58.46,58.46v82.26c0,32.28,26.17,58.46,58.46,58.46h164.55
		c32.28,0,58.46-26.17,58.46-58.46v-82.26C441.13,226.59,414.96,200.42,382.68,200.42z M343.15,304l-76.96,36.71
		c-2.05,0.98-4.42-0.52-4.42-2.79v-75.71c0-2.3,2.43-3.8,4.49-2.76l76.96,39C345.5,299.62,345.46,302.9,343.15,304z"/>
</g>
<g>
	<circle class="st2" cx="300.4" cy="300" r="300"/>
	<g id="XMLID_17_">
		<path id="XMLID_18_" class="st1" d="M156.49,390.42c26.13,16.76,57.17,26.53,90.51,26.53c109.63,0,171.57-92.6,167.84-175.66
			c11.53-8.32,21.55-18.71,29.46-30.57c-10.6,4.69-21.98,7.87-33.91,9.29c12.19-7.29,21.55-18.87,25.95-32.67
			c-11.41,6.77-24.05,11.68-37.49,14.34c-10.78-11.48-26.12-18.64-43.11-18.64c-38.11,0-66.12,35.57-57.52,72.5
			c-49.08-2.46-92.59-25.97-121.7-61.7c-15.47,26.55-8.02,61.27,18.27,78.84c-9.68-0.31-18.8-2.97-26.76-7.39
			c-0.63,27.36,18.97,52.95,47.36,58.65c-8.31,2.26-17.42,2.77-26.66,1.01c7.5,23.47,29.31,40.53,55.15,41.01
			C219.1,385.43,187.82,394.12,156.49,390.42z"/>
	</g>
</g>
</svg>
